# xmcd
#
# Track frame offsets:
#       150
#       23594
#       48161
#       66439
#       86928
#       106735
#       119619
#       140838
#       158214
#       173457
#
# Disc length: 2386 seconds
#
# Revision: 0
# Processed by: cddbd v1.5PL3 Copyright (c) Steve Scherf et al.
# Submitted via: CD-DA_X-Tractor v0.24
#
DISCID=8309500a
DTITLE=Crosseyed - It's A Shame
DYEAR=1997
DGENRE=Roots Rock
TTITLE0=Should've Known Better
TTITLE1=It's A Shame
TTITLE2=Forever Will It Last
TTITLE3=Closer To The End
TTITLE4=Together Forever
TTITLE5=When Luck Calls Your Name
TTITLE6=Tear
TTITLE7=Move
TTITLE8=Is It You, Is It Me
TTITLE9=St. Theresa
EXTD=
EXTT0=
EXTT1=
EXTT2=
EXTT3=
EXTT4=
EXTT5=
EXTT6=
EXTT7=
EXTT8=
EXTT9=
PLAYORDER=
